{
  "accessors": [
    {
      "bufferView": 2,
      "componentType": 5126,
      "count": 65532,
      "max": [
        3.427067518234253,
        6.190251350402832,
        3.2045211791992188
      ],
      "min": [
        -4.086703300476074,
        -2.2576534748077393,
        -3.716447114944458
      ],
      "type": "VEC3"
    },
    {
      "bufferView": 2,
      "byteOffset": 786384,
      "componentType": 5126,
      "count": 65532,
      "max": [
        0.9999994039535522,
        0.9999989867210388,
        0.9999862313270569
      ],
      "min": [
        -0.9999955296516418,
        -0.999411404132843,
        -0.999999463558197
      ],
      "type": "VEC3"
    },
    {
      "bufferView": 1,
      "componentType": 5126,
      "count": 65532,
      "max": [
        0.9981182217597961,
        0.9998132586479187
      ],
      "min": [
        0.000151257190736942,
        0.0003681182861328125
      ],
      "type": "VEC2"
    },
    {
      "bufferView": 0,
      "componentType": 5125,
      "count": 299634,
      "type": "SCALAR"
    },
    {
      "bufferView": 2,
      "byteOffset": 1572768,
      "componentType": 5126,
      "count": 65532,
      "max": [
        3.4164187908172607,
        7.235363483428955,
        3.327838659286499
      ],
      "min": [
        -4.441102504730225,
        -2.2576534748077393,
        -4.045760631561279
      ],
      "type": "VEC3"
    },
    {
      "bufferView": 2,
      "byteOffset": 2359152,
      "componentType": 5126,
      "count": 65532,
      "max": [
        0.9999994039535522,
        0.9999998807907104,
        0.9999982714653015
      ],
      "min": [
        -0.9999741315841675,
        -0.9978839755058289,
        -0.9999604821205139
      ],
      "type": "VEC3"
    },
    {
      "bufferView": 1,
      "byteOffset": 524256,
      "componentType": 5126,
      "count": 65532,
      "max": [
        0.9923125505447388,
        0.9997922778129578
      ],
      "min": [
        0.00014692390686832368,
        0.00029033422470092773
      ],
      "type": "VEC2"
    },
    {
      "bufferView": 0,
      "byteOffset": 1198536,
      "componentType": 5125,
      "count": 281775,
      "type": "SCALAR"
    },
    {
      "bufferView": 2,
      "byteOffset": 3145536,
      "componentType": 5126,
      "count": 65533,
      "max": [
        3.4361073970794678,
        7.625216484069824,
        3.327838659286499
      ],
      "min": [
        -4.606379508972168,
        -2.2576534748077393,
        -4.255537509918213
      ],
      "type": "VEC3"
    },
    {
      "bufferView": 2,
      "byteOffset": 3931932,
      "componentType": 5126,
      "count": 65533,
      "max": [
        0.9999803900718689,
        0.9999964833259583,
        0.9999880194664001
      ],
      "min": [
        -0.9999978542327881,
        -0.999411404132843,
        -0.9999331831932068
      ],
      "type": "VEC3"
    },
    {
      "bufferView": 1,
      "byteOffset": 1048512,
      "componentType": 5126,
      "count": 65533,
      "max": [
        0.998386025428772,
        0.9998021721839905
      ],
      "min": [
        0.00016193256305996329,
        0.0003483295440673828
      ],
      "type": "VEC2"
    },
    {
      "bufferView": 0,
      "byteOffset": 2325636,
      "componentType": 5125,
      "count": 251337,
      "type": "SCALAR"
    },
    {
      "bufferView": 2,
      "byteOffset": 4718328,
      "componentType": 5126,
      "count": 65534,
      "max": [
        3.4360382556915283,
        7.74234676361084,
        3.327838659286499
      ],
      "min": [
        -4.561222553253174,
        -2.2576534748077393,
        -4.240024566650391
      ],
      "type": "VEC3"
    },
    {
      "bufferView": 2,
      "byteOffset": 5504736,
      "componentType": 5126,
      "count": 65534,
      "max": [
        0.999979555606842,
        0.9999944567680359,
        0.9999982714653015
      ],
      "min": [
        -0.9999955296516418,
        -0.9998477101325989,
        -0.9999948740005493
      ],
      "type": "VEC3"
    },
    {
      "bufferView": 1,
      "byteOffset": 1572776,
      "componentType": 5126,
      "count": 65534,
      "max": [
        0.9996582865715027,
        0.999791145324707
      ],
      "min": [
        0.0001496040349593386,
        0.00022268295288085938
      ],
      "type": "VEC2"
    },
    {
      "bufferView": 0,
      "byteOffset": 3330984,
      "componentType": 5125,
      "count": 213141,
      "type": "SCALAR"
    },
    {
      "bufferView": 2,
      "byteOffset": 6291144,
      "componentType": 5126,
      "count": 65534,
      "max": [
        3.433333158493042,
        7.74234676361084,
        3.2961714267730713
      ],
      "min": [
        -4.606379508972168,
        -2.247399091720581,
        -4.014033317565918
      ],
      "type": "VEC3"
    },
    {
      "bufferView": 2,
      "byteOffset": 7077552,
      "componentType": 5126,
      "count": 65534,
      "max": [
        0.9999994039535522,
        0.999996542930603,
        0.9999450445175171
      ],
      "min": [
        -0.9999386072158813,
        -0.9985048174858093,
        -0.9999929070472717
      ],
      "type": "VEC3"
    },
    {
      "bufferView": 1,
      "byteOffset": 2097048,
      "componentType": 5126,
      "count": 65534,
      "max": [
        0.9997655153274536,
        0.9997937679290771
      ],
      "min": [
        0.00014836224727332592,
        0.0003368854522705078
      ],
      "type": "VEC2"
    },
    {
      "bufferView": 0,
      "byteOffset": 4183548,
      "componentType": 5125,
      "count": 141078,
      "type": "SCALAR"
    },
    {
      "bufferView": 2,
      "byteOffset": 7863960,
      "componentType": 5126,
      "count": 8830,
      "max": [
        3.2458534240722656,
        7.707005977630615,
        3.302675724029541
      ],
      "min": [
        -4.054533004760742,
        -2.240359306335449,
        -4.086563587188721
      ],
      "type": "VEC3"
    },
    {
      "bufferView": 2,
      "byteOffset": 7969920,
      "componentType": 5126,
      "count": 8830,
      "max": [
        0.9997676610946655,
        0.9998800158500671,
        0.9999450445175171
      ],
      "min": [
        -0.9999089241027832,
        -0.9976943731307983,
        -0.9999948740005493
      ],
      "type": "VEC3"
    },
    {
      "bufferView": 1,
      "byteOffset": 2621320,
      "componentType": 5126,
      "count": 8830,
      "max": [
        0.9900533556938171,
        0.9993571043014526
      ],
      "min": [
        0.00015500892186537385,
        0.0007489323616027832
      ],
      "type": "VEC2"
    },
    {
      "bufferView": 0,
      "byteOffset": 4747860,
      "componentType": 5125,
      "count": 9753,
      "type": "SCALAR"
    }
  ],
  "asset": {
    "extras": {
      "author": "b_nealie (https://sketchfab.com/b_nealie)",
      "license": "CC-BY-4.0 (http://creativecommons.org/licenses/by/4.0/)",
      "source": "https://sketchfab.com/3d-models/hollow-burnt-tree-trunk-f8e943d0ea6847df8b276d511e52bfd8",
      "title": "Hollow burnt tree trunk"
    },
    "generator": "Sketchfab-11.77.0",
    "version": "2.0"
  },
  "bufferViews": [
    {
      "buffer": 0,
      "byteLength": 4786872,
      "name": "floatBufferViews",
      "target": 34963
    },
    {
      "buffer": 0,
      "byteLength": 2691960,
      "byteOffset": 4786872,
      "byteStride": 8,
      "name": "floatBufferViews",
      "target": 34962
    },
    {
      "buffer": 0,
      "byteLength": 8075880,
      "byteOffset": 7478832,
      "byteStride": 12,
      "name": "floatBufferViews",
      "target": 34962
    }
  ],
  "buffers": [
    {
      "byteLength": 15554712,
      "uri": "scene.bin"
    }
  ],
  "extensionsUsed": [
    "KHR_materials_unlit"
  ],
  "images": [
    {
      "uri": "textures/Material0_baseColor.jpeg"
    }
  ],
  "materials": [
    {
      "doubleSided": true,
      "extensions": {
        "KHR_materials_unlit": {}
      },
      "name": "Material0",
      "pbrMetallicRoughness": {
        "baseColorTexture": {
          "index": 0
        },
        "metallicFactor": 0.0
      }
    }
  ],
  "meshes": [
    {
      "name": "Stereo textured mesh_Material0_0",
      "primitives": [
        {
          "attributes": {
            "NORMAL": 1,
            "POSITION": 0,
            "TEXCOORD_0": 2
          },
          "indices": 3,
          "material": 0,
          "mode": 4
        }
      ]
    },
    {
      "name": "Stereo textured mesh_Material0_0",
      "primitives": [
        {
          "attributes": {
            "NORMAL": 5,
            "POSITION": 4,
            "TEXCOORD_0": 6
          },
          "indices": 7,
          "material": 0,
          "mode": 4
        }
      ]
    },
    {
      "name": "Stereo textured mesh_Material0_0",
      "primitives": [
        {
          "attributes": {
            "NORMAL": 9,
            "POSITION": 8,
            "TEXCOORD_0": 10
          },
          "indices": 11,
          "material": 0,
          "mode": 4
        }
      ]
    },
    {
      "name": "Stereo textured mesh_Material0_0",
      "primitives": [
        {
          "attributes": {
            "NORMAL": 13,
            "POSITION": 12,
            "TEXCOORD_0": 14
          },
          "indices": 15,
          "material": 0,
          "mode": 4
        }
      ]
    },
    {
      "name": "Stereo textured mesh_Material0_0",
      "primitives": [
        {
          "attributes": {
            "NORMAL": 17,
            "POSITION": 16,
            "TEXCOORD_0": 18
          },
          "indices": 19,
          "material": 0,
          "mode": 4
        }
      ]
    },
    {
      "name": "Stereo textured mesh_Material0_0",
      "primitives": [
        {
          "attributes": {
            "NORMAL": 21,
            "POSITION": 20,
            "TEXCOORD_0": 22
          },
          "indices": 23,
          "material": 0,
          "mode": 4
        }
      ]
    }
  ],
  "nodes": [
    {
      "children": [
        1
      ],
      "matrix": [
        1.0,
        0.0,
        0.0,
        0.0,
        0.0,
        -1.0,
        -4.440892098500626e-16,
        0.0,
        0.0,
        4.440892098500626e-16,
        -1.0,
        0.0,
        0.0,
        -2.2784810066223153,
        3.2061958312988277,
        1.0
      ],
      "name": "Sketchfab_model"
    },
    {
      "children": [
        2
      ],
      "matrix": [
        1.0,
        0.0,
        0.0,
        0.0,
        0.0,
        -1.0,
        0.0,
        0.0,
        0.0,
        0.0,
        -1.0,
        0.0,
        0.0,
        0.0,
        0.0,
        1.0
      ],
      "name": "sketchfabTemp.obj.fbx"
    },
    {
      "children": [
        3
      ],
      "name": "RootNode"
    },
    {
      "children": [
        4,
        5,
        6,
        7,
        8,
        9
      ],
      "name": "Stereo textured mesh"
    },
    {
      "mesh": 0,
      "name": "Stereo textured mesh_Material0_0"
    },
    {
      "mesh": 1,
      "name": "Stereo textured mesh_Material0_0"
    },
    {
      "mesh": 2,
      "name": "Stereo textured mesh_Material0_0"
    },
    {
      "mesh": 3,
      "name": "Stereo textured mesh_Material0_0"
    },
    {
      "mesh": 4,
      "name": "Stereo textured mesh_Material0_0"
    },
    {
      "mesh": 5,
      "name": "Stereo textured mesh_Material0_0"
    }
  ],
  "samplers": [
    {
      "magFilter": 9729,
      "minFilter": 9987,
      "wrapS": 10497,
      "wrapT": 10497
    }
  ],
  "scene": 0,
  "scenes": [
    {
      "name": "Sketchfab_Scene",
      "nodes": [
        0
      ]
    }
  ],
  "textures": [
    {
      "sampler": 0,
      "source": 0
    }
  ]
}
