{
  "accessors": [
    {
      "bufferView": 2,
      "componentType": 5126,
      "count": 60413,
      "max": [
        78.168006896972656,
        42.808437347412109,
        115.22665405273438
      ],
      "min": [
        -82.85687255859375,
        -42.808437347412109,
        0.30468431115150452
      ],
      "type": "VEC3"
    },
    {
      "bufferView": 2,
      "byteOffset": 724956,
      "componentType": 5126,
      "count": 60413,
      "max": [
        1,
        1,
        1
      ],
      "min": [
        -1,
        -1,
        -1
      ],
      "type": "VEC3"
    },
    {
      "bufferView": 3,
      "componentType": 5126,
      "count": 60413,
      "max": [
        1,
        1,
        1,
        1
      ],
      "min": [
        -1,
        -1,
        -1,
        -1
      ],
      "type": "VEC4"
    },
    {
      "bufferView": 1,
      "componentType": 5126,
      "count": 60413,
      "max": [
        0.99744606018066406,
        0.99799990653991699
      ],
      "min": [
        0.0020000000949949026,
        0.0020000000949949026
      ],
      "type": "VEC2"
    },
    {
      "bufferView": 0,
      "componentType": 5125,
      "count": 61530,
      "max": [
        60412
      ],
      "min": [
        0
      ],
      "type": "SCALAR"
    },
    {
      "bufferView": 2,
      "byteOffset": 1449912,
      "componentType": 5126,
      "count": 1060,
      "max": [
        1.5956803560256958,
        -1.6847940683364868,
        38.914516448974609
      ],
      "min": [
        -54.302074432373047,
        -3.0189046859741211,
        20.108005523681641
      ],
      "type": "VEC3"
    },
    {
      "bufferView": 2,
      "byteOffset": 1462632,
      "componentType": 5126,
      "count": 1060,
      "max": [
        0.99918919801712036,
        1,
        0.99978542327880859
      ],
      "min": [
        -0.99994337558746338,
        -1,
        -0.99987226724624634
      ],
      "type": "VEC3"
    },
    {
      "bufferView": 3,
      "byteOffset": 966608,
      "componentType": 5126,
      "count": 1060,
      "max": [
        0.99987232685089111,
        0.19292783737182617,
        0.99997282028198242,
        1
      ],
      "min": [
        -0.99992465972900391,
        -0.10522910207509995,
        -0.99994337558746338,
        1
      ],
      "type": "VEC4"
    },
    {
      "bufferView": 1,
      "byteOffset": 483304,
      "componentType": 5126,
      "count": 1060,
      "max": [
        34.405475616455078,
        1.0470372438430786
      ],
      "min": [
        0.078176908195018768,
        -0.0058494387194514275
      ],
      "type": "VEC2"
    },
    {
      "bufferView": 0,
      "byteOffset": 246120,
      "componentType": 5125,
      "count": 1062,
      "max": [
        1059
      ],
      "min": [
        0
      ],
      "type": "SCALAR"
    }
  ],
  "asset": {
    "extras": {
      "author": "Lyskilde (https://sketchfab.com/longtail)",
      "license": "CC-BY-4.0 (http://creativecommons.org/licenses/by/4.0/)",
      "source": "https://sketchfab.com/3d-models/bicycle-25aa85eeba944baea33ce5cde985ca49",
      "title": "Bicycle"
    },
    "generator": "Sketchfab-8.60.0",
    "version": "2.0"
  },
  "bufferViews": [
    {
      "buffer": 0,
      "byteLength": 250368,
      "byteOffset": 0,
      "name": "floatBufferViews",
      "target": 34963
    },
    {
      "buffer": 0,
      "byteLength": 491784,
      "byteOffset": 250368,
      "byteStride": 8,
      "name": "floatBufferViews",
      "target": 34962
    },
    {
      "buffer": 0,
      "byteLength": 1475352,
      "byteOffset": 742152,
      "byteStride": 12,
      "name": "floatBufferViews",
      "target": 34962
    },
    {
      "buffer": 0,
      "byteLength": 983568,
      "byteOffset": 2217504,
      "byteStride": 16,
      "name": "floatBufferViews",
      "target": 34962
    }
  ],
  "buffers": [
    {
      "byteLength": 3201072,
      "uri": "scene.bin"
    }
  ],
  "images": [
    {
      "uri": "textures/BicycleBase.001_baseColor.png"
    },
    {
      "uri": "textures/BicycleBase.001_metallicRoughness.png"
    },
    {
      "uri": "textures/BicycleBase.001_normal.png"
    },
    {
      "uri": "textures/Chain.001_baseColor.png"
    },
    {
      "uri": "textures/Chain.001_metallicRoughness.png"
    },
    {
      "uri": "textures/Chain.001_normal.png"
    }
  ],
  "materials": [
    {
      "doubleSided": true,
      "name": "BicycleBase.001",
      "normalTexture": {
        "index": 2,
        "scale": 1,
        "texCoord": 0
      },
      "pbrMetallicRoughness": {
        "baseColorFactor": [
          1,
          1,
          1,
          1
        ],
        "baseColorTexture": {
          "index": 0,
          "texCoord": 0
        },
        "metallicFactor": 1,
        "metallicRoughnessTexture": {
          "index": 1,
          "texCoord": 0
        },
        "roughnessFactor": 1
      }
    },
    {
      "alphaMode": "BLEND",
      "doubleSided": true,
      "name": "Chain.001",
      "normalTexture": {
        "index": 5,
        "scale": 1,
        "texCoord": 0
      },
      "pbrMetallicRoughness": {
        "baseColorFactor": [
          1,
          1,
          1,
          1
        ],
        "baseColorTexture": {
          "index": 3,
          "texCoord": 0
        },
        "metallicFactor": 0,
        "metallicRoughnessTexture": {
          "index": 4,
          "texCoord": 0
        },
        "roughnessFactor": 1
      }
    }
  ],
  "meshes": [
    {
      "name": "Bicycle_BicycleBase.001_0",
      "primitives": [
        {
          "attributes": {
            "NORMAL": 1,
            "POSITION": 0,
            "TANGENT": 2,
            "TEXCOORD_0": 3
          },
          "indices": 4,
          "material": 0,
          "mode": 4
        }
      ]
    },
    {
      "name": "Bicycle_Chain.001_0",
      "primitives": [
        {
          "attributes": {
            "NORMAL": 6,
            "POSITION": 5,
            "TANGENT": 7,
            "TEXCOORD_0": 8
          },
          "indices": 9,
          "material": 1,
          "mode": 4
        }
      ]
    }
  ],
  "nodes": [
    {
      "children": [
        1
      ],
      "name": "RootNode (gltf orientation matrix)",
      "rotation": [
        -0.70710678118654746,
        -0,
        -0,
        0.70710678118654757
      ]
    },
    {
      "children": [
        2
      ],
      "name": "RootNode (model correction matrix)"
    },
    {
      "children": [
        3
      ],
      "matrix": [
        1,
        0,
        0,
        0,
        0,
        0,
        1,
        0,
        0,
        -1,
        0,
        0,
        0,
        0,
        0,
        1
      ],
      "name": "0b169965080f4e778c47af4b069540d0.fbx"
    },
    {
      "children": [
        4
      ],
      "name": "RootNode"
    },
    {
      "children": [
        5,
        6
      ],
      "matrix": [
        1,
        0,
        0,
        0,
        0,
        -1.6292067939183141e-07,
        -0.99999999999998679,
        0,
        0,
        0.99999999999998679,
        -1.6292067939183141e-07,
        0,
        0,
        0,
        0,
        1
      ],
      "name": "Bicycle"
    },
    {
      "mesh": 0,
      "name": "Bicycle_BicycleBase.001_0"
    },
    {
      "mesh": 1,
      "name": "Bicycle_Chain.001_0"
    }
  ],
  "samplers": [
    {
      "magFilter": 9729,
      "minFilter": 9987,
      "wrapS": 10497,
      "wrapT": 10497
    }
  ],
  "scene": 0,
  "scenes": [
    {
      "name": "OSG_Scene",
      "nodes": [
        0
      ]
    }
  ],
  "textures": [
    {
      "sampler": 0,
      "source": 0
    },
    {
      "sampler": 0,
      "source": 1
    },
    {
      "sampler": 0,
      "source": 2
    },
    {
      "sampler": 0,
      "source": 3
    },
    {
      "sampler": 0,
      "source": 4
    },
    {
      "sampler": 0,
      "source": 5
    }
  ]
}

